<svg version="1.1" id="Layer_1" xmlns="http://www.w3.org/2000/svg" xmlns:xlink="http://www.w3.org/1999/xlink" x="0px" y="0px"
	 width="100%" viewBox="0 0 2362 2362" enable-background="new 0 0 2362 2362" xml:space="preserve">
<path fill="#000000" opacity="1.000000" stroke="none" 
	d="
M1332.000000,2364.000000 
	C888.000000,2364.000000 445.000000,2364.000000 2.000000,2364.000000 
	C2.000000,1576.666626 2.000000,789.333313 2.000000,2.000000 
	C789.333313,2.000000 1576.666626,2.000000 2364.000000,2.000000 
	C2364.000000,789.333313 2364.000000,1576.666626 2364.000000,2364.000000 
	C2020.333374,2364.000000 1676.666626,2364.000000 1332.000000,2364.000000 
M1027.104614,1617.221436 
	C1026.845825,1616.933105 1026.586914,1616.644775 1026.189209,1616.202271 
	C1026.189209,1616.202271 1026.382202,1616.277954 1027.582031,1616.752441 
	C1028.461792,1615.318848 1029.341553,1613.885132 1031.115967,1611.417358 
	C1034.168701,1606.312866 1037.221436,1601.208252 1040.121094,1596.097290 
	C1040.121094,1596.097290 1040.187256,1596.235474 1041.550171,1596.341553 
	C1044.390015,1592.248901 1047.229858,1588.156250 1051.084839,1583.797363 
	C1051.365112,1583.187378 1051.645508,1582.577393 1052.792480,1580.948853 
	C1059.353394,1571.535889 1066.059448,1562.219482 1072.418213,1552.671875 
	C1075.976562,1547.329346 1078.958984,1541.603149 1082.062012,1536.040771 
	C1082.062012,1536.040771 1082.093262,1536.176514 1083.404663,1535.831055 
	C1090.806152,1524.987427 1098.351074,1514.237183 1105.522095,1503.243286 
	C1107.676636,1499.939941 1108.790283,1495.957764 1110.144165,1491.984863 
	C1110.144165,1491.984863 1110.404663,1492.280762 1111.724976,1492.792847 
	C1111.954346,1491.907227 1112.183594,1491.021729 1113.367065,1489.260498 
	C1116.197144,1484.831665 1119.027100,1480.402710 1122.850586,1475.057495 
	C1125.328003,1470.742920 1127.805420,1466.428223 1131.240601,1461.188477 
	C1137.504883,1450.799561 1143.769165,1440.410645 1151.274414,1429.398315 
	C1152.582397,1426.764893 1153.823120,1424.095215 1155.209351,1421.503662 
	C1165.056396,1403.094727 1174.930054,1384.699829 1184.802856,1366.304565 
	C1188.019287,1360.311768 1191.134033,1354.259766 1194.514526,1348.360596 
	C1200.441650,1338.017578 1209.833008,1331.577393 1221.948120,1326.029175 
	C1296.865479,1326.023438 1371.782715,1326.050903 1446.699951,1325.913818 
	C1450.448608,1325.906982 1454.194580,1324.473022 1459.474243,1323.890625 
	C1471.374634,1321.248047 1480.447510,1314.626587 1486.886719,1304.340454 
	C1494.726929,1291.816406 1502.637817,1279.334717 1510.333374,1266.721924 
	C1520.936401,1249.343994 1531.425659,1231.895752 1541.835327,1214.401245 
	C1545.035767,1209.022705 1548.773682,1203.677002 1550.510620,1197.797729 
	C1552.141968,1192.276123 1552.301270,1185.941772 1551.435425,1180.218140 
	C1550.997070,1177.320435 1546.961182,1174.880859 1544.385498,1172.407349 
	C1534.801392,1163.203857 1522.400269,1162.259644 1510.322021,1162.200806 
	C1446.123535,1161.887695 1381.922241,1161.975830 1317.722778,1162.171753 
	C1310.573608,1162.193481 1304.092041,1161.351074 1298.210571,1156.643188 
	C1298.210571,1153.170776 1298.210571,1149.547607 1297.982544,1145.960327 
	C1297.982544,1145.960327 1298.015015,1146.188843 1299.385620,1145.880615 
	C1303.287720,1138.020508 1307.322388,1130.222900 1311.065430,1122.287720 
	C1320.290161,1102.731934 1329.520508,1083.176392 1338.482422,1063.499634 
	C1346.019043,1046.952271 1353.386597,1030.320190 1360.401611,1013.546936 
	C1362.999512,1007.335205 1364.379883,1000.614197 1366.165283,994.149231 
	C1366.165283,994.149231 1366.206543,994.295593 1367.127808,994.861084 
	C1367.427612,994.661499 1367.727539,994.461914 1369.379150,993.742615 
	C1372.320068,980.934692 1382.460571,974.648987 1392.954102,968.973572 
	C1392.118286,969.446045 1391.282471,969.918518 1393.335083,969.190369 
	C1394.239746,968.671875 1395.144287,968.153381 1396.888184,967.260132 
	C1397.496704,967.035950 1397.942383,966.632019 1400.032227,966.459412 
	C1524.009155,966.472046 1647.986084,966.486328 1771.963013,966.482056 
	C1773.952148,966.481995 1775.941284,966.255310 1779.184448,966.485291 
	C1787.066040,965.394104 1795.195068,965.293335 1803.642578,960.320923 
	C1822.245239,953.116150 1836.416748,940.916138 1846.090576,923.362061 
	C1852.095215,912.466187 1858.466064,901.764282 1864.920166,891.125549 
	C1877.799072,869.896179 1891.120605,848.931152 1903.754517,827.558533 
	C1917.631714,804.082886 1930.978516,780.292969 1944.485352,756.599365 
	C1956.023560,736.359131 1967.629028,716.154358 1978.900024,695.765442 
	C1993.036377,670.192932 2007.180054,644.614258 2020.667847,618.698486 
	C2026.222778,608.025024 2030.904175,597.015015 2030.309082,584.044128 
	C2029.882690,574.753784 2026.231812,568.735413 2019.759277,562.958618 
	C2010.042114,554.285889 1998.309570,551.747925 1984.176147,549.978638 
	C1936.735229,549.961731 1889.294189,549.926331 1841.853271,549.945862 
	C1833.901855,549.949158 1825.950562,550.190491 1816.316895,550.092529 
	C1802.646118,551.017700 1792.317139,557.491638 1783.682861,568.058838 
	C1777.859863,575.185486 1775.340088,583.537659 1772.030029,591.645874 
	C1765.899048,606.663147 1759.990723,621.773926 1754.191895,636.923096 
	C1750.486572,646.602905 1745.954468,655.953613 1742.197021,665.556213 
	C1731.545044,692.778687 1720.383911,719.787048 1706.793091,745.630432 
	C1698.241333,761.892090 1686.341187,775.689026 1666.231812,782.110107 
	C1643.476440,783.420898 1620.728149,784.872070 1597.963501,785.994507 
	C1582.106689,786.776306 1566.274780,785.633240 1550.329834,787.649292 
	C1533.671265,789.755493 1516.693604,788.429077 1499.794922,789.585754 
	C1468.448364,791.731628 1436.927612,791.336548 1405.479370,791.994385 
	C1404.151123,792.022217 1402.776611,791.779053 1401.501709,792.041138 
	C1398.316406,792.695923 1395.176270,793.569275 1390.162720,794.060913 
	C1366.325317,794.051025 1342.482544,794.331177 1318.652710,793.902161 
	C1307.656128,793.704163 1297.318481,795.698547 1285.770386,799.740234 
	C1267.376831,808.064026 1251.483765,819.853821 1238.350464,835.114014 
	C1230.151123,844.641357 1223.292236,855.238281 1218.657104,866.991211 
	C1212.109985,883.591675 1206.079468,900.395142 1199.663452,917.048462 
	C1197.803101,921.877441 1195.181152,926.410034 1193.256714,931.218018 
	C1189.389526,940.879517 1185.746948,950.631348 1182.040161,960.356689 
	C1178.338623,970.068298 1174.886841,979.881531 1170.934448,989.489380 
	C1166.207397,1000.980408 1160.728394,1012.168030 1156.180420,1023.725403 
	C1149.019897,1041.921997 1142.641479,1060.427368 1135.422363,1078.599609 
	C1127.272583,1099.114502 1118.392456,1119.338257 1110.134644,1139.811523 
	C1100.531128,1163.620728 1091.267456,1187.566895 1081.834351,1211.444946 
	C1079.821045,1216.541504 1077.747192,1221.614990 1075.641357,1226.674072 
	C1072.008301,1235.402710 1068.166870,1244.048584 1064.707764,1252.844971 
	C1060.195190,1264.320679 1056.176758,1275.992554 1051.574219,1287.430542 
	C1043.939331,1306.404175 1035.954224,1325.236572 1028.216675,1344.169312 
	C1020.455688,1363.158936 1013.573669,1382.551025 1004.928101,1401.125122 
	C994.748047,1422.995972 983.268799,1444.273438 972.014099,1465.629517 
	C961.335754,1485.891968 950.600525,1506.142700 939.186523,1525.994019 
	C928.201538,1545.099121 916.790833,1563.997559 904.716553,1582.429688 
	C885.454590,1611.834473 865.489624,1640.771973 842.499756,1667.482544 
	C824.519409,1688.372925 805.836426,1708.480835 784.250671,1725.833740 
	C779.398499,1729.734253 772.779053,1732.671997 769.602783,1739.494507 
	C768.472412,1740.145508 767.341980,1740.796387 764.813171,1741.314087 
	C763.818726,1742.124146 762.824219,1742.934204 761.964172,1743.983032 
	C761.964172,1743.983032 761.799866,1743.762329 760.447266,1743.671753 
	C758.900391,1744.967651 757.353516,1746.263550 755.619995,1747.560791 
	C755.619995,1747.560791 755.573914,1747.741577 754.376465,1747.077637 
	C753.410522,1747.990479 752.444519,1748.903442 750.036499,1749.977783 
	C747.663391,1751.121826 745.292847,1752.271118 742.916809,1753.409058 
	C718.041504,1765.322510 691.775024,1772.615967 664.316345,1773.859741 
	C626.565430,1775.569458 588.721252,1772.355347 550.932678,1775.817261 
	C535.811340,1777.202637 525.599487,1783.483521 519.630005,1798.299561 
	C517.184570,1804.369385 514.082153,1810.172363 511.562408,1816.214966 
	C507.459534,1826.053711 503.589722,1835.989624 498.648804,1846.845459 
	C497.755127,1849.601440 496.470551,1852.297241 496.035461,1855.123779 
	C494.171143,1867.234985 499.041138,1873.003052 513.372986,1875.239014 
	C514.687805,1875.384766 516.002625,1875.657471 517.317505,1875.658081 
	C570.392456,1875.684937 623.467407,1875.710083 676.542175,1875.620605 
	C679.039612,1875.616333 681.535278,1874.564575 685.778320,1874.078003 
	C689.856812,1874.101807 693.935242,1874.125610 699.379028,1874.518677 
	C700.264526,1874.259766 701.150024,1874.000854 703.048462,1873.580688 
	C703.210205,1873.420654 703.523376,1873.239136 703.504333,1873.104736 
	C703.454102,1872.749756 703.259766,1872.415161 704.849426,1872.202271 
	C706.566956,1872.138184 708.284485,1872.074097 711.316650,1872.460693 
	C712.223328,1872.343750 713.130066,1872.226807 715.693481,1871.969849 
	C719.122559,1870.789673 722.468750,1869.171143 725.994934,1868.504761 
	C741.701111,1865.536865 756.744690,1860.384644 771.165955,1853.771606 
	C780.580627,1849.454468 789.189087,1843.379150 799.341125,1838.026245 
	C799.719055,1837.912109 800.096985,1837.798096 801.827087,1837.469604 
	C809.874695,1832.277344 817.922302,1827.085083 827.371521,1821.739258 
	C828.794739,1820.891724 830.276306,1820.128174 831.632385,1819.184204 
	C864.849792,1796.067383 894.664001,1769.158691 923.032043,1740.281860 
	C949.067200,1713.779663 973.252380,1685.814331 996.411621,1656.880493 
	C1002.743896,1648.969482 1008.300720,1640.437744 1014.065063,1631.988647 
	C1014.065063,1631.988647 1014.237366,1632.179443 1015.753296,1631.907593 
	C1015.951721,1630.624756 1016.150146,1629.342041 1016.114014,1628.075439 
	C1016.114014,1628.075439 1016.141541,1628.308960 1017.573608,1628.825439 
	C1017.813965,1627.971436 1018.054260,1627.117432 1018.009949,1626.123291 
	C1018.009949,1626.123291 1018.260376,1626.318359 1019.600769,1626.845093 
	C1019.817322,1625.979736 1020.033875,1625.114380 1020.212646,1624.145874 
	C1020.212646,1624.145874 1020.320679,1624.165649 1021.748352,1623.983521 
	C1021.925354,1622.654541 1022.102295,1621.325684 1022.027161,1620.025269 
	C1022.027161,1620.025269 1022.058838,1620.276978 1023.107422,1620.778076 
	C1023.410217,1620.536255 1023.713074,1620.294556 1025.120239,1619.890503 
	C1025.515381,1619.282349 1025.910522,1618.674194 1027.104614,1617.221436 
M820.570862,925.048340 
	C820.892944,924.022644 821.215027,922.996887 822.411255,920.285522 
	C822.322693,902.848083 822.234192,885.410583 821.873291,866.391602 
	C819.805908,855.629333 814.708740,846.053101 808.776733,837.183594 
	C800.494202,824.799500 790.564758,813.772278 774.714111,807.453735 
	C771.834778,806.567322 768.955383,805.680969 764.948181,803.752380 
	C761.956848,803.455017 758.965576,803.157715 755.712524,802.505066 
	C755.712524,802.505066 755.062073,801.911133 753.063049,801.606812 
	C726.732910,801.628845 700.402710,801.650879 672.513916,801.198608 
	C661.658569,801.389832 650.803223,801.581055 638.257507,801.540039 
	C634.850891,801.636597 631.444214,801.733154 626.533142,801.278137 
	C609.315308,801.144531 603.445312,800.599243 592.102966,793.886230 
	C592.102966,793.886230 591.981689,793.879333 593.021667,792.356384 
	C592.645569,787.004517 592.269531,781.652588 591.967468,775.252380 
	C591.959229,774.552185 591.950989,773.852051 593.300110,772.316406 
	C593.759460,767.564148 594.144592,762.802979 594.711487,758.063599 
	C594.969910,755.903320 594.903503,753.148804 596.180481,751.778076 
	C599.095337,748.649109 599.760742,745.088379 600.590881,741.149170 
	C602.161560,733.695801 603.656128,726.339478 606.750183,719.061279 
	C610.945190,709.193298 614.518127,699.082275 619.237915,689.343018 
	C624.719177,678.032471 632.975769,669.199707 642.072205,661.194092 
	C646.611389,657.199219 652.722961,654.207397 658.617004,652.725220 
	C666.794189,650.668762 675.435913,650.459351 685.690552,649.905457 
	C687.688782,649.936829 689.687073,649.995789 691.685303,649.995850 
	C1026.153931,650.000000 1360.622559,650.001038 1695.091187,649.983154 
	C1698.078735,649.983032 1701.066162,649.729187 1705.708496,649.849731 
	C1718.211670,650.311951 1728.074829,644.213135 1732.671753,632.785461 
	C1737.542847,620.675781 1740.996216,607.830078 1747.206665,596.475159 
	C1752.577148,586.656067 1752.033936,576.839539 1752.058228,566.740784 
	C1752.080688,557.412354 1745.122192,550.387695 1735.930664,549.873352 
	C1732.608276,549.687500 1729.267090,549.835754 1725.934570,549.835693 
	C1389.013306,549.835083 1052.092041,549.804077 715.170776,549.894592 
	C688.901367,549.901672 662.617554,550.381165 636.370056,551.402893 
	C625.508301,551.825684 614.752563,554.334473 605.422424,563.352112 
	C595.204895,564.005798 587.026489,569.707458 580.928589,576.681580 
	C567.130066,592.462952 554.624512,609.374939 540.413086,626.439453 
	C524.960999,648.076782 509.300690,669.570007 494.169098,691.429199 
	C488.813049,699.166504 484.746216,707.796265 479.418640,717.206482 
	C470.835876,732.241821 461.565826,746.934387 453.851257,762.402710 
	C445.000793,780.148621 437.405487,798.528503 429.508789,816.738708 
	C425.252502,826.553894 422.403534,836.706360 421.910461,847.604614 
	C421.394470,859.009827 425.880890,869.202698 428.605682,881.318665 
	C430.518372,885.420349 431.904083,889.884155 434.431763,893.563293 
	C447.894623,913.159363 465.961884,927.034119 489.265137,936.391357 
	C491.484100,937.490417 493.703064,938.589539 497.556335,939.611328 
	C503.069916,940.334717 508.583527,941.058105 515.640198,942.399109 
	C518.400452,942.384521 521.160645,942.369934 525.398132,942.800110 
	C529.613342,943.177002 533.828552,943.553894 539.592712,944.416199 
	C550.500000,945.688843 561.338501,943.252319 572.510132,945.479858 
	C583.280212,947.627319 594.786072,946.084961 606.860413,947.158569 
	C610.856567,949.035400 615.598816,949.837341 617.402344,956.397583 
	C617.441162,958.256348 617.295471,960.149841 617.635376,961.951843 
	C617.732544,962.466980 619.236572,962.716675 619.862549,963.832581 
	C619.570007,964.553711 619.277466,965.274841 619.144226,964.249268 
	C618.344788,964.057190 616.973145,963.503296 616.831482,963.727173 
	C614.567017,967.308594 612.305786,970.908813 610.341614,974.660645 
	C598.788879,996.728271 587.312683,1018.835999 575.812439,1040.931152 
	C559.294250,1072.667236 542.851074,1104.442627 526.232483,1136.125977 
	C516.477417,1154.723877 506.390472,1173.147583 496.600250,1191.727295 
	C495.282776,1194.227661 494.829315,1197.183350 492.553833,1200.258301 
	C491.966156,1200.474976 491.043854,1200.524048 490.839050,1200.932617 
	C483.050568,1216.477661 475.468353,1232.127441 467.554474,1247.607788 
	C460.546600,1261.315918 453.065887,1274.781616 446.004333,1288.463013 
	C439.428772,1301.202759 433.232788,1314.138184 426.671814,1326.885376 
	C422.775330,1334.455933 418.323242,1341.740601 414.429321,1349.312378 
	C408.468292,1360.903809 402.846039,1372.668823 396.947998,1384.293213 
	C388.646393,1400.654785 380.185272,1416.935547 371.867767,1433.289185 
	C366.699371,1443.451172 361.811371,1453.757568 356.543335,1463.866821 
	C349.850464,1476.710327 342.742157,1489.338379 336.105164,1502.210083 
	C329.472565,1515.073364 323.338959,1528.193481 316.732147,1541.070679 
	C309.850525,1554.483276 302.467804,1567.640381 295.662048,1581.090210 
	C287.241150,1597.731689 279.393219,1614.664062 270.914398,1631.275146 
	C263.692688,1645.423462 255.753738,1659.204712 248.462296,1673.318848 
	C243.344727,1683.224609 238.973053,1693.514160 233.923737,1703.457275 
	C227.443344,1716.218506 220.488037,1728.738159 213.973083,1741.482422 
	C205.617981,1757.825928 197.384766,1774.234131 189.304520,1790.715332 
	C179.652588,1810.402222 170.095596,1830.138794 160.871765,1850.027466 
	C159.910477,1852.100220 161.481918,1855.347778 162.578049,1859.257568 
	C165.420761,1868.032227 173.639526,1871.215454 180.244736,1876.024536 
	C180.965546,1876.549438 182.684372,1875.703491 185.321686,1875.670166 
	C186.242142,1875.664429 187.162613,1875.658691 189.926315,1875.949707 
	C271.940186,1875.962402 353.954071,1875.977539 435.967926,1875.974609 
	C437.952789,1875.974487 439.937653,1875.772949 443.250275,1875.735352 
	C443.880798,1875.142090 444.511353,1874.548706 444.977478,1873.977051 
	C444.977478,1873.977051 444.850006,1874.083008 445.913391,1873.665771 
	C446.470001,1873.181152 447.026611,1872.696655 448.763031,1872.150269 
	C449.545807,1872.064331 450.328552,1871.978394 451.297333,1873.574951 
	C454.930389,1876.014771 457.946289,1873.940674 459.990173,1871.504272 
	C467.972839,1861.988037 475.520508,1852.133789 477.665741,1837.325439 
	C477.846771,1836.033813 478.027802,1834.742310 479.427612,1832.836060 
	C484.999237,1822.793091 489.270325,1812.245361 491.741180,1801.004761 
	C491.802612,1800.725220 491.565094,1800.379883 491.879547,1798.696777 
	C493.482422,1796.230713 495.574493,1793.951416 496.600311,1791.265015 
	C500.304626,1781.563721 503.650208,1771.725220 507.479645,1761.703125 
	C507.479645,1761.703125 508.057739,1761.094482 508.630157,1759.616211 
	C510.019440,1755.720703 511.372986,1751.812012 512.804749,1747.932129 
	C517.221497,1735.962280 521.668152,1724.003540 527.387695,1711.420654 
	C532.131348,1697.874512 536.875061,1684.328491 541.795959,1669.212280 
	C541.858276,1668.160889 541.920593,1667.109619 543.416199,1665.807495 
	C546.321838,1658.557983 549.227417,1651.308594 553.426758,1643.371948 
	C557.606873,1632.174927 561.742371,1620.961060 565.977234,1609.784912 
	C572.854675,1591.634766 579.289795,1573.293335 586.882751,1555.445923 
	C592.353455,1542.586670 595.188721,1528.879883 601.677368,1516.275391 
	C607.875061,1504.235962 611.446899,1490.844849 617.443604,1477.246094 
	C618.370605,1473.492310 619.321350,1469.744019 620.216431,1465.982666 
	C620.846863,1463.333618 621.401611,1460.666504 623.174377,1457.311646 
	C624.533081,1455.053345 626.250488,1452.934570 627.191528,1450.513794 
	C632.831604,1436.006836 638.403992,1421.470947 643.768921,1406.860229 
	C646.551086,1399.283203 648.860107,1391.532349 652.624634,1383.003906 
	C654.029968,1378.760742 655.435242,1374.517456 658.049866,1369.621216 
	C660.868774,1361.744385 663.658447,1353.856934 666.513184,1345.993164 
	C670.884583,1333.952026 675.300720,1321.927124 680.760498,1308.852173 
	C681.792603,1304.559326 682.824707,1300.266357 685.048218,1295.274170 
	C690.057617,1282.927490 695.148682,1270.613159 700.055359,1258.225830 
	C706.028259,1243.146606 711.873535,1228.016479 717.723145,1212.888916 
	C723.851501,1197.040283 729.988525,1181.194336 735.990417,1165.297729 
	C740.216187,1154.105347 744.120056,1142.791260 748.353760,1131.601929 
	C753.171570,1118.868652 758.292908,1106.250122 763.102051,1093.513672 
	C767.204590,1082.648438 771.021667,1071.675781 775.019958,1060.770752 
	C779.277039,1049.160034 783.598755,1037.572876 788.935547,1024.982666 
	C796.775696,1004.046814 804.615845,983.111023 813.403442,961.149719 
	C816.266968,955.233582 818.912537,949.338562 818.182068,942.408997 
	C817.965271,940.352234 819.312195,938.130676 820.450439,934.385315 
	C820.357117,931.605774 820.263794,928.826233 820.570862,925.048340 
z"/>
<path fill="#040404" opacity="1.000000" stroke="none" 
	d="
M755.062073,801.911133 
	C755.062073,801.911133 755.712524,802.505066 755.408020,803.450745 
	C758.786560,805.476990 762.469543,806.557495 766.832275,807.883789 
	C770.255981,809.052734 772.999939,809.975952 776.191772,811.368042 
	C784.633179,815.505493 791.066528,821.086121 796.667542,827.799988 
	C806.738586,839.872192 814.948120,852.919067 818.704712,869.307861 
	C818.527771,887.477295 818.368225,904.733887 818.039307,922.646606 
	C817.918030,924.200317 817.966187,925.097900 817.790161,926.781860 
	C817.206665,930.247437 816.847351,932.926575 816.244019,936.271057 
	C813.961487,945.277832 811.923096,953.619202 809.526428,962.557007 
	C808.388489,964.959167 807.523804,966.733521 806.841980,968.575500 
	C799.773132,987.674683 792.733826,1006.784912 785.139954,1026.311279 
	C757.604858,1097.527710 730.590332,1168.315063 703.644226,1239.128540 
	C696.438354,1258.065552 689.441589,1277.082153 682.033813,1296.715698 
	C680.291443,1301.531616 678.864075,1305.693848 676.899414,1310.281006 
	C668.983765,1330.498291 661.605408,1350.290771 653.881958,1370.714233 
	C652.003723,1375.498535 650.470581,1379.651978 648.526855,1384.329346 
	C638.917175,1409.254883 629.718018,1433.656372 620.172607,1458.698120 
	C617.674011,1465.488525 615.521667,1471.638550 612.857239,1478.239258 
	C605.301758,1497.217285 598.276672,1515.751465 591.210999,1534.270264 
	C579.626831,1564.631836 567.970276,1594.965942 556.455078,1625.353516 
	C554.130981,1631.486816 552.300293,1637.806885 549.765564,1644.561768 
	C546.853638,1652.074463 544.418274,1659.066284 541.982910,1666.058228 
	C541.920593,1667.109619 541.858276,1668.160889 541.111694,1670.219238 
	C535.075623,1684.843628 529.723816,1698.461060 523.914551,1712.619629 
	C517.747803,1727.693848 511.975769,1742.203247 506.458069,1756.808594 
	C506.052307,1757.882446 507.481567,1759.649658 508.057739,1761.094482 
	C508.057739,1761.094482 507.479645,1761.703125 506.500641,1761.509033 
	C504.542358,1764.274780 503.707214,1767.291992 502.557556,1770.183960 
	C498.581665,1780.185181 494.496338,1790.142700 490.065460,1800.718506 
	C485.855133,1812.030273 482.031982,1822.740479 478.208832,1833.450684 
	C478.027802,1834.742310 477.846771,1836.033813 476.882385,1838.398926 
	C474.590820,1842.487549 473.139465,1845.532837 471.563995,1848.512573 
	C466.593048,1857.913818 462.555084,1868.147949 451.111298,1871.892578 
	C450.328552,1871.978394 449.545807,1872.064331 447.717590,1872.493408 
	C446.064728,1873.251953 445.457336,1873.667480 444.849976,1874.083008 
	C444.850006,1874.083008 444.977478,1873.977051 444.306580,1873.728027 
	C443.116425,1873.566895 442.597229,1873.654785 441.154968,1873.537354 
	C358.145447,1873.304321 276.059021,1873.272827 193.972610,1873.270508 
	C191.995483,1873.270508 190.018356,1873.596436 187.610611,1873.422852 
	C186.098770,1872.886719 185.017563,1872.698242 183.288940,1872.214355 
	C174.988007,1869.430542 168.760391,1865.231201 165.349167,1856.838623 
	C166.479675,1851.378174 166.940750,1846.292236 169.003616,1841.970825 
	C182.604294,1813.478760 196.171204,1784.959229 210.454605,1756.806519 
	C251.510284,1675.885376 292.727234,1595.044678 334.208069,1514.340576 
	C377.665283,1429.791504 421.524963,1345.449463 465.155914,1260.989624 
	C475.064117,1241.809448 484.754974,1222.517212 495.051178,1202.770752 
	C517.768372,1159.618042 539.942749,1116.951538 562.203735,1074.330322 
	C581.078796,1038.191772 600.053955,1002.105347 618.984863,965.995972 
	C619.277466,965.274841 619.570007,964.553711 620.035461,962.763306 
	C619.800232,958.437439 622.406738,954.475098 617.748779,951.506226 
	C615.340332,945.659851 610.685852,944.879089 605.084106,944.158691 
	C596.717285,943.874756 589.163086,943.615479 581.613220,943.709045 
	C575.772705,943.781372 569.430298,945.901184 564.214172,944.252808 
	C555.473877,941.490784 546.787903,942.110779 537.411987,941.101562 
	C532.539185,940.389404 528.304810,940.126587 523.242981,939.752930 
	C519.642090,939.461853 516.868774,939.281616 513.474976,938.694458 
	C507.827271,937.695618 502.800049,937.103638 497.109772,936.221069 
	C493.677765,935.142822 490.908783,934.355042 487.773041,933.005127 
	C463.063812,921.156860 442.644897,905.721191 431.914246,879.225586 
	C424.957153,857.896973 424.236969,837.490295 433.182526,817.265625 
	C437.750153,806.938843 441.772827,796.346313 446.806885,786.255554 
	C458.515747,762.785339 470.688660,739.546570 483.210754,715.843628 
	C491.928070,702.650269 499.773376,689.597717 508.369812,677.060242 
	C520.139099,659.895264 532.478943,643.121460 545.154175,625.882751 
	C555.592407,613.075989 565.086487,600.253601 575.455933,588.183105 
	C581.008423,581.719849 587.898987,576.346069 594.523376,570.890808 
	C597.541809,568.405090 601.505005,567.087830 601.985046,562.347229 
	C602.018677,562.014954 604.658997,561.946594 606.403198,562.457458 
	C624.401672,555.081360 643.180237,553.645935 662.283936,553.648315 
	C1016.465271,553.692017 1370.646606,553.679382 1724.828003,553.690247 
	C1727.822388,553.690308 1730.816895,553.926758 1733.811035,553.919067 
	C1741.249023,553.900024 1745.146484,558.347656 1747.820312,564.618835 
	C1751.389038,572.989197 1749.354126,580.934326 1746.245239,588.813843 
	C1741.363892,601.185120 1735.873047,613.347717 1731.643188,625.935669 
	C1727.059692,639.576355 1717.874023,646.575439 1703.139893,648.166260 
	C1700.899170,647.956848 1699.567139,647.906067 1698.234985,647.906006 
	C1363.092529,647.901245 1027.950073,647.898376 692.807556,647.924072 
	C689.832581,647.924316 686.857544,648.307983 682.980347,648.431152 
	C678.763000,648.265930 675.398010,647.777893 672.142761,648.179321 
	C664.448975,649.128174 656.408997,648.383301 649.359314,652.781372 
	C637.075195,660.445007 626.860291,670.002014 619.312439,682.571655 
	C608.590942,700.426453 602.555664,719.955322 597.787476,739.955505 
	C596.546509,745.160583 596.690796,750.695923 596.059753,757.602722 
	C591.534058,760.598450 590.788818,766.573486 591.942749,773.151855 
	C591.950989,773.852051 591.959229,774.552185 591.328979,776.178955 
	C590.051575,780.674988 588.923157,784.250061 588.963013,787.811951 
	C588.985718,789.845398 590.912354,791.857605 591.981689,793.879333 
	C591.981689,793.879333 592.102966,793.886230 591.815857,794.635010 
	C595.006653,797.630188 598.261292,801.232361 602.007446,801.849182 
	C610.565796,803.258423 619.364746,803.206787 628.910400,803.842285 
	C633.153687,803.898315 636.552490,803.860535 640.836426,804.025513 
	C652.486816,804.178345 663.252075,804.128296 674.947266,804.193787 
	C700.349243,804.513794 724.821167,804.763184 749.293518,804.844177 
	C751.432922,804.851257 754.908813,806.304871 755.062073,801.911133 
z"/>
<path fill="#193B69" opacity="1.000000" stroke="none" 
	d="
M800.474854,1837.684082 
	C800.096985,1837.798096 799.719055,1837.912109 798.010864,1838.026489 
	C774.071289,1848.190186 751.576904,1858.626099 728.747559,1868.268799 
	C724.582886,1870.027832 719.309509,1871.754150 713.522827,1869.659912 
	C711.876587,1869.841187 710.949402,1870.055786 709.247986,1870.215332 
	C704.984192,1870.781006 701.494690,1871.401733 697.162354,1871.989502 
	C692.411011,1872.160034 688.502441,1872.363525 683.636353,1872.371826 
	C659.394592,1872.095337 636.110352,1871.933350 612.826233,1871.951538 
	C579.228455,1871.977905 545.630859,1872.134766 511.317749,1872.076294 
	C496.808014,1865.740479 495.327759,1862.192139 500.926239,1848.774536 
	C501.299652,1847.879761 501.574585,1846.944092 502.205505,1845.398682 
	C509.512177,1828.649780 516.119812,1812.345215 523.648621,1796.477539 
	C528.278198,1786.720337 536.429382,1780.045288 547.552673,1779.245605 
	C565.040588,1777.988403 582.584961,1777.286865 600.117126,1776.936157 
	C619.057678,1776.557129 638.017761,1777.139893 656.957275,1776.736328 
	C667.204834,1776.518066 677.573853,1775.922241 687.631653,1774.089600 
	C711.218933,1769.791748 733.927307,1762.609741 755.444824,1750.091797 
	C756.262878,1749.520996 756.613770,1749.141602 756.531494,1748.970459 
	C756.311584,1748.513062 755.905823,1748.145142 755.573914,1747.741577 
	C755.573914,1747.741577 755.619995,1747.560791 756.272827,1748.235840 
	C758.928284,1747.552490 763.089905,1748.237915 761.799866,1743.762329 
	C761.799866,1743.762329 761.964172,1743.983032 762.503540,1744.535400 
	C764.099182,1743.874268 765.155396,1742.660767 766.211609,1741.447388 
	C767.341980,1740.796387 768.472412,1740.145508 770.619751,1739.074219 
	C774.432800,1736.940430 777.411316,1735.464111 779.995911,1733.475586 
	C799.866211,1718.188599 817.718628,1700.739868 834.392578,1682.072144 
	C871.370972,1640.671997 902.535156,1595.081421 930.897888,1547.506470 
	C966.723206,1487.413818 999.861206,1425.846802 1026.057129,1360.934326 
	C1092.413940,1196.504639 1157.919678,1031.731567 1223.913940,867.155273 
	C1226.734863,860.120728 1230.483521,853.307129 1234.738159,847.026062 
	C1249.320801,825.498291 1268.975830,810.093628 1293.875000,800.410278 
	C1308.562622,797.279297 1322.618286,795.603088 1336.894897,796.228394 
	C1355.287842,797.033875 1373.667358,796.705872 1392.957275,795.913208 
	C1396.533936,796.151550 1399.199341,796.294189 1401.855835,796.196228 
	C1433.457764,795.031494 1465.057007,793.789551 1496.659790,792.649414 
	C1542.241333,791.004944 1587.829346,789.535278 1633.405029,787.746704 
	C1644.983276,787.292358 1656.525391,785.915222 1668.743652,784.846313 
	C1672.188965,783.665649 1675.133545,782.894165 1677.734741,781.487732 
	C1693.269043,773.087891 1704.352661,760.140564 1711.549316,744.494568 
	C1726.132446,712.789917 1740.009521,680.749573 1753.604980,648.605347 
	C1762.666748,627.180054 1770.618408,605.287781 1779.288086,583.693237 
	C1787.635620,562.900818 1800.773071,554.161133 1822.870239,554.019348 
	C1831.177246,553.966064 1839.482422,553.616089 1848.726807,553.555054 
	C1893.814087,553.658020 1937.963257,553.607117 1982.891846,553.753296 
	C1993.784912,554.495911 2003.419067,556.851013 2012.161377,562.072510 
	C2021.438477,567.613159 2027.033325,575.720459 2025.955200,586.745056 
	C2025.255249,593.902039 2023.920654,601.385681 2020.971436,607.857605 
	C2013.533691,624.179565 2005.753052,640.432556 1996.818359,655.970520 
	C1946.760254,743.024536 1896.164429,829.769409 1846.133911,916.839111 
	C1835.480713,935.379517 1821.588867,949.760315 1801.319824,958.697998 
	C1793.031982,960.611633 1785.486084,962.390747 1777.007812,964.120605 
	C1654.500122,964.060913 1532.925049,964.049805 1411.349976,964.043274 
	C1407.686523,964.043091 1404.016724,963.988342 1400.364990,964.208618 
	C1399.666138,964.250793 1399.037964,965.465942 1397.844727,966.591064 
	C1396.891235,967.239807 1396.470093,967.437317 1396.048950,967.634888 
	C1395.144287,968.153381 1394.239746,968.671875 1391.829834,969.672913 
	C1389.589966,967.370850 1387.766357,967.502686 1385.809692,968.630981 
	C1377.594727,973.367859 1370.738525,979.347595 1367.188721,989.337219 
	C1366.448242,991.340088 1366.327393,992.817871 1366.206543,994.295593 
	C1366.206543,994.295593 1366.165283,994.149231 1365.509033,994.070496 
	C1364.381470,994.864319 1363.850952,995.710510 1363.446899,996.613220 
	C1342.253784,1043.965698 1321.054077,1091.315186 1299.940552,1138.703125 
	C1298.906738,1141.023682 1298.639404,1143.685791 1298.015015,1146.188843 
	C1298.015015,1146.188843 1297.982544,1145.960327 1297.455566,1146.119995 
	C1291.672485,1155.970337 1293.617920,1161.154907 1304.210327,1163.452515 
	C1310.985596,1164.922241 1318.025024,1165.732788 1324.958374,1165.817383 
	C1352.578613,1166.155029 1380.203735,1166.132202 1407.827026,1166.167358 
	C1444.105591,1166.213623 1480.384155,1166.221924 1516.662720,1166.167480 
	C1524.164917,1166.156250 1531.089722,1167.763794 1537.367676,1172.011108 
	C1549.338013,1180.109863 1551.495239,1188.143799 1544.927612,1200.838135 
	C1543.553345,1203.494507 1542.066772,1206.098389 1540.521729,1208.660156 
	C1523.348755,1237.134644 1505.862061,1265.425659 1489.098511,1294.138916 
	C1481.598511,1306.984863 1472.209961,1317.022217 1457.223633,1322.099609 
	C1447.757202,1322.629639 1439.165161,1323.810181 1430.570190,1323.832397 
	C1368.683472,1323.992798 1306.795898,1323.906250 1244.908691,1323.932129 
	C1236.597534,1323.935547 1228.286377,1324.129883 1219.261230,1324.226196 
	C1204.579224,1329.728516 1195.049438,1339.607910 1188.134644,1352.918335 
	C1175.273804,1377.674561 1161.668213,1402.043701 1148.397583,1426.587402 
	C1147.932983,1427.446777 1147.737549,1428.451416 1147.496826,1429.525757 
	C1147.576782,1429.663086 1147.883179,1429.578003 1147.305664,1429.707520 
	C1146.376953,1430.528320 1146.025635,1431.219482 1145.172241,1432.344238 
	C1139.161865,1442.113281 1133.653320,1451.448853 1127.742188,1461.277344 
	C1124.503174,1466.479004 1121.666748,1471.187988 1118.359375,1476.299072 
	C1115.246948,1481.111084 1112.605469,1485.521118 1109.745361,1490.580200 
	C1109.819336,1491.579712 1110.112061,1491.930298 1110.404663,1492.280762 
	C1110.404663,1492.280762 1110.144165,1491.984863 1109.562988,1491.934448 
	C1100.052368,1505.449097 1091.094238,1518.995483 1082.261475,1532.623291 
	C1081.704224,1533.482910 1082.126587,1534.977417 1082.093262,1536.176514 
	C1082.093262,1536.176514 1082.062012,1536.040771 1081.438721,1535.858154 
	C1070.362305,1550.876953 1059.909302,1566.078125 1049.467285,1581.328735 
	C1049.478149,1581.378052 1049.547363,1581.451538 1049.055054,1581.704346 
	C1048.372925,1582.635742 1048.183105,1583.314453 1047.354492,1584.230957 
	C1044.539551,1588.390869 1042.363403,1592.313110 1040.187256,1596.235474 
	C1040.187256,1596.235474 1040.121094,1596.097290 1039.520752,1596.000977 
	C1035.870728,1600.182251 1032.821045,1604.459595 1029.169434,1609.247314 
	C1027.839111,1611.931152 1027.110718,1614.104492 1026.382202,1616.277954 
	C1026.382202,1616.277954 1026.189209,1616.202271 1025.744385,1615.733032 
	C1024.686890,1615.998169 1024.074219,1616.732422 1023.473999,1617.502686 
	C1023.486389,1617.538452 1023.551819,1617.552979 1023.017334,1617.810303 
	C1022.341492,1618.804077 1022.200134,1619.540527 1022.058838,1620.276978 
	C1022.058838,1620.276978 1022.027161,1620.025269 1021.396301,1620.210938 
	C1020.617188,1621.652954 1020.468933,1622.909302 1020.320679,1624.165649 
	C1020.320679,1624.165649 1020.212646,1624.145874 1019.513977,1623.836060 
	C1018.630310,1624.456909 1018.445374,1625.387695 1018.260376,1626.318359 
	C1018.260376,1626.318359 1018.009949,1626.123291 1017.483704,1626.022217 
	C1016.685486,1626.717041 1016.413513,1627.513062 1016.141541,1628.308960 
	C1016.141541,1628.308960 1016.114014,1628.075439 1015.453613,1628.199951 
	C1014.607910,1629.609497 1014.422668,1630.894531 1014.237366,1632.179443 
	C1014.237366,1632.179443 1014.065063,1631.988647 1013.496277,1631.732056 
	C1010.524292,1634.215454 1007.968994,1636.837646 1005.740906,1639.713257 
	C980.651489,1672.094604 954.436523,1703.511963 926.035217,1733.063110 
	C895.292725,1765.050415 862.164978,1794.295044 825.288391,1820.141113 
	C818.542358,1824.074219 812.374878,1827.723389 806.456909,1831.740356 
	C804.171204,1833.291870 802.452087,1835.678101 800.474854,1837.684082 
z"/>
<path fill="#C3C9CD" opacity="1.000000" stroke="none" 
	d="
M1293.090210,800.376709 
	C1268.975830,810.093628 1249.320801,825.498291 1234.738159,847.026062 
	C1230.483521,853.307129 1226.734863,860.120728 1223.913940,867.155273 
	C1157.919678,1031.731567 1092.413940,1196.504639 1026.057129,1360.934326 
	C999.861206,1425.846802 966.723206,1487.413818 930.897888,1547.506470 
	C902.535156,1595.081421 871.370972,1640.671997 834.392578,1682.072144 
	C817.718628,1700.739868 799.866211,1718.188599 779.995911,1733.475586 
	C777.411316,1735.464111 774.432800,1736.940430 771.278320,1739.192871 
	C772.779053,1732.671997 779.398499,1729.734253 784.250671,1725.833740 
	C805.836426,1708.480835 824.519409,1688.372925 842.499756,1667.482544 
	C865.489624,1640.771973 885.454590,1611.834473 904.716553,1582.429688 
	C916.790833,1563.997559 928.201538,1545.099121 939.186523,1525.994019 
	C950.600525,1506.142700 961.335754,1485.891968 972.014099,1465.629517 
	C983.268799,1444.273438 994.748047,1422.995972 1004.928101,1401.125122 
	C1013.573669,1382.551025 1020.455688,1363.158936 1028.216675,1344.169312 
	C1035.954224,1325.236572 1043.939331,1306.404175 1051.574219,1287.430542 
	C1056.176758,1275.992554 1060.195190,1264.320679 1064.707764,1252.844971 
	C1068.166870,1244.048584 1072.008301,1235.402710 1075.641357,1226.674072 
	C1077.747192,1221.614990 1079.821045,1216.541504 1081.834351,1211.444946 
	C1091.267456,1187.566895 1100.531128,1163.620728 1110.134644,1139.811523 
	C1118.392456,1119.338257 1127.272583,1099.114502 1135.422363,1078.599609 
	C1142.641479,1060.427368 1149.019897,1041.921997 1156.180420,1023.725403 
	C1160.728394,1012.168030 1166.207397,1000.980408 1170.934448,989.489380 
	C1174.886841,979.881531 1178.338623,970.068298 1182.040161,960.356689 
	C1185.746948,950.631348 1189.389526,940.879517 1193.256714,931.218018 
	C1195.181152,926.410034 1197.803101,921.877441 1199.663452,917.048462 
	C1206.079468,900.395142 1212.109985,883.591675 1218.657104,866.991211 
	C1223.292236,855.238281 1230.151123,844.641357 1238.350464,835.114014 
	C1251.483765,819.853821 1267.376831,808.064026 1287.466187,799.793335 
	C1290.471436,800.023254 1291.780762,800.199951 1293.090210,800.376709 
z"/>
<path fill="#9F9F9F" opacity="1.000000" stroke="none" 
	d="
M1704.048340,648.348511 
	C1717.874023,646.575439 1727.059692,639.576355 1731.643188,625.935669 
	C1735.873047,613.347717 1741.363892,601.185120 1746.245239,588.813843 
	C1749.354126,580.934326 1751.389038,572.989197 1747.820312,564.618835 
	C1745.146484,558.347656 1741.249023,553.900024 1733.811035,553.919067 
	C1730.816895,553.926758 1727.822388,553.690308 1724.828003,553.690247 
	C1370.646606,553.679382 1016.465271,553.692017 662.283936,553.648315 
	C643.180237,553.645935 624.401672,555.081360 606.393799,562.511536 
	C606.068420,561.863708 606.151489,562.043884 606.151489,562.043884 
	C614.752563,554.334473 625.508301,551.825684 636.370056,551.402893 
	C662.617554,550.381165 688.901367,549.901672 715.170776,549.894592 
	C1052.092041,549.804077 1389.013306,549.835083 1725.934570,549.835693 
	C1729.267090,549.835754 1732.608276,549.687500 1735.930664,549.873352 
	C1745.122192,550.387695 1752.080688,557.412354 1752.058228,566.740784 
	C1752.033936,576.839539 1752.577148,586.656067 1747.206665,596.475159 
	C1740.996216,607.830078 1737.542847,620.675781 1732.671753,632.785461 
	C1728.074829,644.213135 1718.211670,650.311951 1704.886841,649.410400 
	C1704.065186,648.971130 1704.048340,648.348511 1704.048340,648.348511 
z"/>
<path fill="#C3C9CD" opacity="1.000000" stroke="none" 
	d="
M494.545898,1203.276611 
	C484.754974,1222.517212 475.064117,1241.809448 465.155914,1260.989624 
	C421.524963,1345.449463 377.665283,1429.791504 334.208069,1514.340576 
	C292.727234,1595.044678 251.510284,1675.885376 210.454605,1756.806519 
	C196.171204,1784.959229 182.604294,1813.478760 169.003616,1841.970825 
	C166.940750,1846.292236 166.479675,1851.378174 164.463318,1856.957764 
	C163.058701,1857.886719 162.468460,1857.968506 161.878235,1858.050171 
	C161.481918,1855.347778 159.910477,1852.100220 160.871765,1850.027466 
	C170.095596,1830.138794 179.652588,1810.402222 189.304520,1790.715332 
	C197.384766,1774.234131 205.617981,1757.825928 213.973083,1741.482422 
	C220.488037,1728.738159 227.443344,1716.218506 233.923737,1703.457275 
	C238.973053,1693.514160 243.344727,1683.224609 248.462296,1673.318848 
	C255.753738,1659.204712 263.692688,1645.423462 270.914398,1631.275146 
	C279.393219,1614.664062 287.241150,1597.731689 295.662048,1581.090210 
	C302.467804,1567.640381 309.850525,1554.483276 316.732147,1541.070679 
	C323.338959,1528.193481 329.472565,1515.073364 336.105164,1502.210083 
	C342.742157,1489.338379 349.850464,1476.710327 356.543335,1463.866821 
	C361.811371,1453.757568 366.699371,1443.451172 371.867767,1433.289185 
	C380.185272,1416.935547 388.646393,1400.654785 396.947998,1384.293213 
	C402.846039,1372.668823 408.468292,1360.903809 414.429321,1349.312378 
	C418.323242,1341.740601 422.775330,1334.455933 426.671814,1326.885376 
	C433.232788,1314.138184 439.428772,1301.202759 446.004333,1288.463013 
	C453.065887,1274.781616 460.546600,1261.315918 467.554474,1247.607788 
	C475.468353,1232.127441 483.050568,1216.477661 490.839050,1200.932617 
	C491.043854,1200.524048 491.966156,1200.474976 493.381012,1200.934814 
	C494.320770,1202.166382 494.433319,1202.721558 494.545898,1203.276611 
z"/>
<path fill="#C3C9CD" opacity="1.000000" stroke="none" 
	d="
M1802.062012,958.563416 
	C1821.588867,949.760315 1835.480713,935.379517 1846.133911,916.839111 
	C1896.164429,829.769409 1946.760254,743.024536 1996.818359,655.970520 
	C2005.753052,640.432556 2013.533691,624.179565 2020.971436,607.857605 
	C2023.920654,601.385681 2025.255249,593.902039 2025.955200,586.745056 
	C2027.033325,575.720459 2021.438477,567.613159 2012.161377,562.072510 
	C2003.419067,556.851013 1993.784912,554.495911 1983.248047,553.387451 
	C1983.891968,551.990845 1984.959229,551.157349 1986.026611,550.323792 
	C1998.309570,551.747925 2010.042114,554.285889 2019.759277,562.958618 
	C2026.231812,568.735413 2029.882690,574.753784 2030.309082,584.044128 
	C2030.904175,597.015015 2026.222778,608.025024 2020.667847,618.698486 
	C2007.180054,644.614258 1993.036377,670.192932 1978.900024,695.765442 
	C1967.629028,716.154358 1956.023560,736.359131 1944.485352,756.599365 
	C1930.978516,780.292969 1917.631714,804.082886 1903.754517,827.558533 
	C1891.120605,848.931152 1877.799072,869.896179 1864.920166,891.125549 
	C1858.466064,901.764282 1852.095215,912.466187 1846.090576,923.362061 
	C1836.416748,940.916138 1822.245239,953.116150 1802.916992,959.981995 
	C1802.148315,959.283142 1802.105103,958.923279 1802.062012,958.563416 
z"/>
<path fill="#C3C9CD" opacity="1.000000" stroke="none" 
	d="
M1458.096802,1322.213867 
	C1472.209961,1317.022217 1481.598511,1306.984863 1489.098511,1294.138916 
	C1505.862061,1265.425659 1523.348755,1237.134644 1540.521729,1208.660156 
	C1542.066772,1206.098389 1543.553345,1203.494507 1544.927612,1200.838135 
	C1551.495239,1188.143799 1549.338013,1180.109863 1537.367676,1172.011108 
	C1531.089722,1167.763794 1524.164917,1166.156250 1516.662720,1166.167480 
	C1480.384155,1166.221924 1444.105591,1166.213623 1407.827026,1166.167358 
	C1380.203735,1166.132202 1352.578613,1166.155029 1324.958374,1165.817383 
	C1318.025024,1165.732788 1310.985596,1164.922241 1304.210327,1163.452515 
	C1293.617920,1161.154907 1291.672485,1155.970337 1297.569580,1146.102051 
	C1298.210571,1149.547607 1298.210571,1153.170776 1298.210571,1156.643188 
	C1304.092041,1161.351074 1310.573608,1162.193481 1317.722778,1162.171753 
	C1381.922241,1161.975830 1446.123535,1161.887695 1510.322021,1162.200806 
	C1522.400269,1162.259644 1534.801392,1163.203857 1544.385498,1172.407349 
	C1546.961182,1174.880859 1550.997070,1177.320435 1551.435425,1180.218140 
	C1552.301270,1185.941772 1552.141968,1192.276123 1550.510620,1197.797729 
	C1548.773682,1203.677002 1545.035767,1209.022705 1541.835327,1214.401245 
	C1531.425659,1231.895752 1520.936401,1249.343994 1510.333374,1266.721924 
	C1502.637817,1279.334717 1494.726929,1291.816406 1486.886719,1304.340454 
	C1480.447510,1314.626587 1471.374634,1321.248047 1458.765137,1323.426514 
	C1458.056030,1322.962402 1458.096802,1322.213867 1458.096802,1322.213867 
z"/>
<path fill="#8E8E8E" opacity="1.000000" stroke="none" 
	d="
M1703.139893,648.166260 
	C1704.048340,648.348511 1704.065186,648.971130 1704.059448,649.282471 
	C1701.066162,649.729187 1698.078735,649.983032 1695.091187,649.983154 
	C1360.622559,650.001038 1026.153931,650.000000 691.685303,649.995850 
	C689.687073,649.995789 687.688782,649.936829 684.721802,649.445435 
	C683.753113,648.985413 683.882568,648.512634 683.882568,648.512634 
	C686.857544,648.307983 689.832581,647.924316 692.807556,647.924072 
	C1027.950073,647.898376 1363.092529,647.901245 1698.234985,647.906006 
	C1699.567139,647.906067 1700.899170,647.956848 1703.139893,648.166260 
z"/>
<path fill="#C3C9CD" opacity="1.000000" stroke="none" 
	d="
M1847.788452,553.401367 
	C1839.482422,553.616089 1831.177246,553.966064 1822.870239,554.019348 
	C1800.773071,554.161133 1787.635620,562.900818 1779.288086,583.693237 
	C1770.618408,605.287781 1762.666748,627.180054 1753.604980,648.605347 
	C1740.009521,680.749573 1726.132446,712.789917 1711.549316,744.494568 
	C1704.352661,760.140564 1693.269043,773.087891 1677.734741,781.487732 
	C1675.133545,782.894165 1672.188965,783.665649 1668.736816,784.372681 
	C1668.011475,783.384705 1668.000000,782.753723 1668.035889,782.121826 
	C1686.341187,775.689026 1698.241333,761.892090 1706.793091,745.630432 
	C1720.383911,719.787048 1731.545044,692.778687 1742.197021,665.556213 
	C1745.954468,655.953613 1750.486572,646.602905 1754.191895,636.923096 
	C1759.990723,621.773926 1765.899048,606.663147 1772.030029,591.645874 
	C1775.340088,583.537659 1777.859863,575.185486 1783.682861,568.058838 
	C1792.317139,557.491638 1802.646118,551.017700 1817.867676,550.609253 
	C1823.680908,551.386475 1827.948975,551.578064 1832.204346,551.924988 
	C1837.404663,552.348999 1842.594238,552.903381 1847.788452,553.401367 
z"/>
<path fill="#B0B0B0" opacity="1.000000" stroke="none" 
	d="
M682.348755,1296.062134 
	C689.441589,1277.082153 696.438354,1258.065552 703.644226,1239.128540 
	C730.590332,1168.315063 757.604858,1097.527710 785.692017,1026.318481 
	C787.157532,1025.929565 787.524841,1025.952515 787.892151,1025.975464 
	C783.598755,1037.572876 779.277039,1049.160034 775.019958,1060.770752 
	C771.021667,1071.675781 767.204590,1082.648438 763.102051,1093.513672 
	C758.292908,1106.250122 753.171570,1118.868652 748.353760,1131.601929 
	C744.120056,1142.791260 740.216187,1154.105347 735.990417,1165.297729 
	C729.988525,1181.194336 723.851501,1197.040283 717.723145,1212.888916 
	C711.873535,1228.016479 706.028259,1243.146606 700.055359,1258.225830 
	C695.148682,1270.613159 690.057617,1282.927490 684.077271,1295.676514 
	C683.106384,1296.078735 682.348755,1296.062134 682.348755,1296.062134 
z"/>
<path fill="#B7BEC5" opacity="1.000000" stroke="none" 
	d="
M495.051208,1202.770752 
	C494.433319,1202.721558 494.320770,1202.166382 494.091980,1200.769653 
	C494.829315,1197.183350 495.282776,1194.227661 496.600250,1191.727295 
	C506.390472,1173.147583 516.477417,1154.723877 526.232483,1136.125977 
	C542.851074,1104.442627 559.294250,1072.667236 575.812439,1040.931152 
	C587.312683,1018.835999 598.788879,996.728271 610.341614,974.660645 
	C612.305786,970.908813 614.567017,967.308594 616.831482,963.727173 
	C616.973145,963.503296 618.344788,964.057190 619.064575,965.122620 
	C600.053955,1002.105347 581.078796,1038.191772 562.203735,1074.330322 
	C539.942749,1116.951538 517.768372,1159.618042 495.051208,1202.770752 
z"/>
<path fill="#B7BEC5" opacity="1.000000" stroke="none" 
	d="
M754.780151,1750.378174 
	C733.927307,1762.609741 711.218933,1769.791748 687.631653,1774.089600 
	C677.573853,1775.922241 667.204834,1776.518066 656.957275,1776.736328 
	C638.017761,1777.139893 619.057678,1776.557129 600.117126,1776.936157 
	C582.584961,1777.286865 565.040588,1777.988403 547.552673,1779.245605 
	C536.429382,1780.045288 528.278198,1786.720337 523.648621,1796.477539 
	C516.119812,1812.345215 509.512177,1828.649780 501.636780,1845.369263 
	C500.379059,1845.940552 500.000275,1845.912476 499.621521,1845.884521 
	C503.589722,1835.989624 507.459534,1826.053711 511.562408,1816.214966 
	C514.082153,1810.172363 517.184570,1804.369385 519.630005,1798.299561 
	C525.599487,1783.483521 535.811340,1777.202637 550.932678,1775.817261 
	C588.721252,1772.355347 626.565430,1775.569458 664.316345,1773.859741 
	C691.775024,1772.615967 718.041504,1765.322510 742.916809,1753.409058 
	C745.292847,1752.271118 747.663391,1751.121826 751.583374,1750.034912 
	C753.680237,1750.187378 754.230164,1750.282837 754.780151,1750.378174 
z"/>
<path fill="#B7BEC5" opacity="1.000000" stroke="none" 
	d="
M825.966553,1820.004028 
	C862.164978,1794.295044 895.292725,1765.050415 926.035217,1733.063110 
	C954.436523,1703.511963 980.651489,1672.094604 1005.740906,1639.713257 
	C1007.968994,1636.837646 1010.524292,1634.215454 1013.570435,1631.833130 
	C1008.300720,1640.437744 1002.743896,1648.969482 996.411621,1656.880493 
	C973.252380,1685.814331 949.067200,1713.779663 923.032043,1740.281860 
	C894.664001,1769.158691 864.849792,1796.067383 831.632385,1819.184204 
	C830.276306,1820.128174 828.794739,1820.891724 826.669189,1821.343872 
	C825.966919,1820.948486 825.966553,1820.004028 825.966553,1820.004028 
z"/>
<path fill="#B7BEC5" opacity="1.000000" stroke="none" 
	d="
M1667.133789,782.115967 
	C1668.000000,782.753723 1668.011475,783.384705 1668.077148,784.488403 
	C1656.525391,785.915222 1644.983276,787.292358 1633.405029,787.746704 
	C1587.829346,789.535278 1542.241333,791.004944 1496.659790,792.649414 
	C1465.057007,793.789551 1433.457764,795.031494 1401.855835,796.196228 
	C1399.199341,796.294189 1396.533936,796.151550 1392.959473,795.575317 
	C1392.046143,795.030029 1392.017944,794.354919 1392.017944,794.354858 
	C1395.176270,793.569275 1398.316406,792.695923 1401.501709,792.041138 
	C1402.776611,791.779053 1404.151123,792.022217 1405.479370,791.994385 
	C1436.927612,791.336548 1468.448364,791.731628 1499.794922,789.585754 
	C1516.693604,788.429077 1533.671265,789.755493 1550.329834,787.649292 
	C1566.274780,785.633240 1582.106689,786.776306 1597.963501,785.994507 
	C1620.728149,784.872070 1643.476440,783.420898 1667.133789,782.115967 
z"/>
<path fill="#C3C9CD" opacity="1.000000" stroke="none" 
	d="
M482.673553,716.214050 
	C470.688660,739.546570 458.515747,762.785339 446.806885,786.255554 
	C441.772827,796.346313 437.750153,806.938843 433.182526,817.265625 
	C424.236969,837.490295 424.957153,857.896973 431.287811,879.263550 
	C429.859802,880.027832 429.024628,879.975830 428.189484,879.923828 
	C425.880890,869.202698 421.394470,859.009827 421.910461,847.604614 
	C422.403534,836.706360 425.252502,826.553894 429.508789,816.738708 
	C437.405487,798.528503 445.000793,780.148621 453.851257,762.402710 
	C461.565826,746.934387 470.835876,732.241821 480.400330,716.661987 
	C481.812561,716.149780 482.243042,716.181946 482.673553,716.214050 
z"/>
<path fill="#B0B0B0" opacity="1.000000" stroke="none" 
	d="
M550.242126,1644.040894 
	C552.300293,1637.806885 554.130981,1631.486816 556.455078,1625.353516 
	C567.970276,1594.965942 579.626831,1564.631836 591.210999,1534.270264 
	C598.276672,1515.751465 605.301758,1497.217285 613.558594,1478.299072 
	C615.239014,1477.954956 615.706055,1478.001465 616.172974,1478.047852 
	C611.446899,1490.844849 607.875061,1504.235962 601.677368,1516.275391 
	C595.188721,1528.879883 592.353455,1542.586670 586.882751,1555.445923 
	C579.289795,1573.293335 572.854675,1591.634766 565.977234,1609.784912 
	C561.742371,1620.961060 557.606873,1632.174927 552.307495,1643.679199 
	C551.188232,1643.986450 550.242126,1644.040894 550.242126,1644.040894 
z"/>
<path fill="#C3C9CD" opacity="1.000000" stroke="none" 
	d="
M1298.700317,1146.034668 
	C1298.639404,1143.685791 1298.906738,1141.023682 1299.940552,1138.703125 
	C1321.054077,1091.315186 1342.253784,1043.965698 1363.446899,996.613220 
	C1363.850952,995.710510 1364.381470,994.864319 1365.584229,994.058594 
	C1364.379883,1000.614197 1362.999512,1007.335205 1360.401611,1013.546936 
	C1353.386597,1030.320190 1346.019043,1046.952271 1338.482422,1063.499634 
	C1329.520508,1083.176392 1320.290161,1102.731934 1311.065430,1122.287720 
	C1307.322388,1130.222900 1303.287720,1138.020508 1298.700317,1146.034668 
z"/>
<path fill="#B0B0B0" opacity="1.000000" stroke="none" 
	d="
M1398.377075,966.139893 
	C1399.037964,965.465942 1399.666138,964.250793 1400.364990,964.208618 
	C1404.016724,963.988342 1407.686523,964.043091 1411.349976,964.043274 
	C1532.925049,964.049805 1654.500122,964.060913 1777.002686,964.611694 
	C1777.930054,965.151917 1777.930420,966.134399 1777.930420,966.134399 
	C1775.941284,966.255310 1773.952148,966.481995 1771.963013,966.482056 
	C1647.986084,966.486328 1524.009155,966.472046 1399.153320,966.295715 
	C1398.274292,966.132019 1398.377075,966.139893 1398.377075,966.139893 
z"/>
<path fill="#B0B0B0" opacity="1.000000" stroke="none" 
	d="
M682.980347,648.431152 
	C683.882568,648.512634 683.753113,648.985413 683.815918,649.222290 
	C675.435913,650.459351 666.794189,650.668762 658.617004,652.725220 
	C652.722961,654.207397 646.611389,657.199219 642.072205,661.194092 
	C632.975769,669.199707 624.719177,678.032471 619.237915,689.343018 
	C614.518127,699.082275 610.945190,709.193298 606.750183,719.061279 
	C603.656128,726.339478 602.161560,733.695801 600.590881,741.149170 
	C599.760742,745.088379 599.095337,748.649109 596.180481,751.778076 
	C594.903503,753.148804 594.969910,755.903320 594.711487,758.063599 
	C594.144592,762.802979 593.759460,767.564148 592.621460,772.734131 
	C590.788818,766.573486 591.534058,760.598450 596.059753,757.602722 
	C596.690796,750.695923 596.546509,745.160583 597.787476,739.955505 
	C602.555664,719.955322 608.590942,700.426453 619.312439,682.571655 
	C626.860291,670.002014 637.075195,660.445007 649.359314,652.781372 
	C656.408997,648.383301 664.448975,649.128174 672.142761,648.179321 
	C675.398010,647.777893 678.763000,648.265930 682.980347,648.431152 
z"/>
<path fill="#4E5662" opacity="1.000000" stroke="none" 
	d="
M512.033142,1872.235840 
	C545.630859,1872.134766 579.228455,1871.977905 612.826233,1871.951538 
	C636.110352,1871.933350 659.394592,1872.095337 683.699951,1872.810303 
	C684.721191,1873.443726 684.031799,1874.000732 684.031799,1874.000732 
	C681.535278,1874.564575 679.039612,1875.616333 676.542175,1875.620605 
	C623.467407,1875.710083 570.392456,1875.684937 517.317505,1875.658081 
	C516.002625,1875.657471 514.687805,1875.384766 512.670959,1874.273193 
	C511.990326,1872.950195 512.011719,1872.593018 512.033142,1872.235840 
z"/>
<path fill="#B0B0B0" opacity="1.000000" stroke="none" 
	d="
M1848.726807,553.555115 
	C1842.594238,552.903381 1837.404663,552.348999 1832.204346,551.924988 
	C1827.948975,551.578064 1823.680908,551.386475 1818.708740,550.723877 
	C1825.950562,550.190491 1833.901855,549.949158 1841.853271,549.945862 
	C1889.294189,549.926331 1936.735229,549.961731 1985.101318,550.151245 
	C1984.959229,551.157349 1983.891968,551.990845 1982.468506,553.190308 
	C1937.963257,553.607117 1893.814087,553.658020 1848.726807,553.555115 
z"/>
<path fill="#C3C9CD" opacity="1.000000" stroke="none" 
	d="
M1147.416748,1429.388428 
	C1147.737549,1428.451416 1147.932983,1427.446777 1148.397583,1426.587402 
	C1161.668213,1402.043701 1175.273804,1377.674561 1188.134644,1352.918335 
	C1195.049438,1339.607910 1204.579224,1329.728516 1219.271973,1324.712891 
	C1219.996826,1325.209473 1220.090454,1326.178955 1220.090454,1326.178955 
	C1209.833008,1331.577393 1200.441650,1338.017578 1194.514526,1348.360596 
	C1191.134033,1354.259766 1188.019287,1360.311768 1184.802856,1366.304565 
	C1174.930054,1384.699829 1165.056396,1403.094727 1155.209351,1421.503662 
	C1153.823120,1424.095215 1152.582397,1426.764893 1149.999146,1429.554199 
	C1148.288208,1429.602783 1147.852417,1429.495605 1147.416748,1429.388428 
z"/>
<path fill="#B7BEC5" opacity="1.000000" stroke="none" 
	d="
M483.210754,715.843628 
	C482.243042,716.181946 481.812561,716.149780 480.736450,716.068115 
	C484.746216,707.796265 488.813049,699.166504 494.169098,691.429199 
	C509.300690,669.570007 524.960999,648.076782 541.746460,626.238647 
	C543.577942,626.085205 544.076111,626.132568 544.574280,626.179993 
	C532.478943,643.121460 520.139099,659.895264 508.369812,677.060242 
	C499.773376,689.597717 491.928070,702.650269 483.210754,715.843628 
z"/>
<path fill="#B7BEC5" opacity="1.000000" stroke="none" 
	d="
M188.041229,1873.770386 
	C190.018356,1873.596436 191.995483,1873.270508 193.972610,1873.270508 
	C276.059021,1873.272827 358.145447,1873.304321 441.088043,1874.016113 
	C441.944244,1874.699951 441.922516,1875.665527 441.922516,1875.665527 
	C439.937653,1875.772949 437.952789,1875.974487 435.967926,1875.974609 
	C353.954071,1875.977539 271.940186,1875.962402 189.025085,1875.330078 
	C188.123871,1874.710327 188.041229,1873.770386 188.041229,1873.770386 
z"/>
<path fill="#B0B0B0" opacity="1.000000" stroke="none" 
	d="
M1221.019287,1326.104004 
	C1220.090454,1326.178955 1219.996826,1325.209473 1219.986084,1324.722656 
	C1228.286377,1324.129883 1236.597534,1323.935547 1244.908691,1323.932129 
	C1306.795898,1323.906250 1368.683472,1323.992798 1430.570190,1323.832397 
	C1439.165161,1323.810181 1447.757202,1322.629639 1457.223633,1322.099609 
	C1458.096802,1322.213867 1458.056030,1322.962402 1457.999023,1323.333008 
	C1454.194580,1324.473022 1450.448608,1325.906982 1446.699951,1325.913818 
	C1371.782715,1326.050903 1296.865479,1326.023438 1221.019287,1326.104004 
z"/>
<path fill="#B0B0B0" opacity="1.000000" stroke="none" 
	d="
M545.154175,625.882751 
	C544.076111,626.132568 543.577942,626.085205 542.336426,625.932495 
	C554.624512,609.374939 567.130066,592.462952 580.928589,576.681580 
	C587.026489,569.707458 595.204895,564.005798 605.786987,562.697998 
	C606.151489,562.043884 606.068420,561.863708 606.077820,561.809631 
	C604.658997,561.946594 602.018677,562.014954 601.985046,562.347229 
	C601.505005,567.087830 597.541809,568.405090 594.523376,570.890808 
	C587.898987,576.346069 581.008423,581.719849 575.455933,588.183105 
	C565.086487,600.253601 555.592407,613.075989 545.154175,625.882751 
z"/>
<path fill="#B7BEC5" opacity="1.000000" stroke="none" 
	d="
M818.722107,868.395020 
	C814.948120,852.919067 806.738586,839.872192 796.667542,827.799988 
	C791.066528,821.086121 784.633179,815.505493 776.234863,810.715332 
	C775.881836,809.160950 775.933594,808.728027 775.985291,808.295044 
	C790.564758,813.772278 800.494202,824.799500 808.776733,837.183594 
	C814.708740,846.053101 819.805908,855.629333 821.151184,867.268311 
	C819.860046,868.228333 819.291077,868.311707 818.722107,868.395020 
z"/>
<path fill="#B0B0B0" opacity="1.000000" stroke="none" 
	d="
M428.397583,880.621216 
	C429.024628,879.975830 429.859802,880.027832 431.321381,880.041931 
	C442.644897,905.721191 463.063812,921.156860 487.787872,933.524292 
	C488.146362,934.951050 488.123230,935.296570 488.100128,935.642029 
	C465.961884,927.034119 447.894623,913.159363 434.431763,893.563293 
	C431.904083,889.884155 430.518372,885.420349 428.397583,880.621216 
z"/>
<path fill="#B0B0B0" opacity="1.000000" stroke="none" 
	d="
M620.518799,1458.057861 
	C629.718018,1433.656372 638.917175,1409.254883 649.139404,1384.293457 
	C650.569275,1383.775757 650.976135,1383.817871 651.382935,1383.860107 
	C648.860107,1391.532349 646.551086,1399.283203 643.768921,1406.860229 
	C638.403992,1421.470947 632.831604,1436.006836 627.191528,1450.513794 
	C626.250488,1452.934570 624.533081,1455.053345 622.215698,1457.709595 
	C621.256958,1458.107544 620.518738,1458.057861 620.518799,1458.057861 
z"/>
<path fill="#9F9F9F" opacity="1.000000" stroke="none" 
	d="
M714.241882,1869.693237 
	C719.309509,1871.754150 724.582886,1870.027832 728.747559,1868.268799 
	C751.576904,1858.626099 774.071289,1848.190186 797.419678,1838.059082 
	C789.189087,1843.379150 780.580627,1849.454468 771.165955,1853.771606 
	C756.744690,1860.384644 741.701111,1865.536865 725.994934,1868.504761 
	C722.468750,1869.171143 719.122559,1870.789673 714.998230,1871.442627 
	C714.282654,1870.508179 714.262268,1870.100708 714.241882,1869.693237 
z"/>
<path fill="#B7BEC5" opacity="1.000000" stroke="none" 
	d="
M788.413818,1025.479004 
	C787.524841,1025.952515 787.157532,1025.929565 786.238159,1025.899170 
	C792.733826,1006.784912 799.773132,987.674683 806.841980,968.575500 
	C807.523804,966.733521 808.388489,964.959167 810.171875,962.578369 
	C811.602417,962.060669 812.029175,962.117920 812.455933,962.175171 
	C804.615845,983.111023 796.775696,1004.046814 788.413818,1025.479004 
z"/>
<path fill="#B0B0B0" opacity="1.000000" stroke="none" 
	d="
M654.227051,1370.083374 
	C661.605408,1350.290771 668.983765,1330.498291 677.465576,1310.239990 
	C678.945374,1309.814697 679.321655,1309.855103 679.697876,1309.895386 
	C675.300720,1321.927124 670.884583,1333.952026 666.513184,1345.993164 
	C663.658447,1353.856934 660.868774,1361.744385 656.791138,1369.912354 
	C655.097351,1370.163452 654.662170,1370.123413 654.227051,1370.083374 
z"/>
<path fill="#B0B0B0" opacity="1.000000" stroke="none" 
	d="
M1391.090332,794.207886 
	C1392.017944,794.354919 1392.046143,795.030029 1392.043945,795.367920 
	C1373.667358,796.705872 1355.287842,797.033875 1336.894897,796.228394 
	C1322.618286,795.603088 1308.562622,797.279297 1293.875000,800.410278 
	C1291.780762,800.199951 1290.471436,800.023254 1288.179199,799.724670 
	C1297.318481,795.698547 1307.656128,793.704163 1318.652710,793.902161 
	C1342.482544,794.331177 1366.325317,794.051025 1391.090332,794.207886 
z"/>
<path fill="#C3C9CD" opacity="1.000000" stroke="none" 
	d="
M538.050476,941.551025 
	C546.787903,942.110779 555.473877,941.490784 564.214172,944.252808 
	C569.430298,945.901184 575.772705,943.781372 581.613220,943.709045 
	C589.163086,943.615479 596.717285,943.874756 605.055176,944.617554 
	C605.840637,945.253052 605.968689,946.163574 605.968689,946.163574 
	C594.786072,946.084961 583.280212,947.627319 572.510132,945.479858 
	C561.338501,943.252319 550.500000,945.688843 538.790527,943.578430 
	C538.009155,942.344055 538.029846,941.947510 538.050476,941.551025 
z"/>
<path fill="#B7BEC5" opacity="1.000000" stroke="none" 
	d="
M1082.749023,1536.003784 
	C1082.126587,1534.977417 1081.704224,1533.482910 1082.261475,1532.623291 
	C1091.094238,1518.995483 1100.052368,1505.449097 1109.681274,1492.085327 
	C1108.790283,1495.957764 1107.676636,1499.939941 1105.522095,1503.243286 
	C1098.351074,1514.237183 1090.806152,1524.987427 1082.749023,1536.003784 
z"/>
<path fill="#B7BEC5" opacity="1.000000" stroke="none" 
	d="
M1049.456299,1581.279419 
	C1059.909302,1566.078125 1070.362305,1550.876953 1081.508057,1535.862793 
	C1078.958984,1541.603149 1075.976562,1547.329346 1072.418213,1552.671875 
	C1066.059448,1562.219482 1059.353394,1571.535889 1051.733643,1581.315552 
	C1050.268433,1581.547974 1049.862305,1581.413696 1049.456299,1581.279419 
z"/>
<path fill="#9F9F9F" opacity="1.000000" stroke="none" 
	d="
M508.343933,1760.355347 
	C507.481567,1759.649658 506.052307,1757.882446 506.458069,1756.808594 
	C511.975769,1742.203247 517.747803,1727.693848 524.346436,1712.569702 
	C525.235779,1711.978516 526.103210,1712.040405 526.103210,1712.040405 
	C521.668152,1724.003540 517.221497,1735.962280 512.804749,1747.932129 
	C511.372986,1751.812012 510.019440,1755.720703 508.343933,1760.355347 
z"/>
<path fill="#9F9F9F" opacity="1.000000" stroke="none" 
	d="
M451.204315,1872.733643 
	C462.555084,1868.147949 466.593048,1857.913818 471.563995,1848.512573 
	C473.139465,1845.532837 474.590820,1842.487549 476.702026,1839.360352 
	C475.520508,1852.133789 467.972839,1861.988037 459.990173,1871.504272 
	C457.946289,1873.940674 454.930389,1876.014771 451.204315,1872.733643 
z"/>
<path fill="#B0B0B0" opacity="1.000000" stroke="none" 
	d="
M526.745483,1711.730469 
	C526.103210,1712.040405 525.235779,1711.978516 524.803894,1712.028564 
	C529.723816,1698.461060 535.075623,1684.843628 541.023132,1671.004272 
	C536.875061,1684.328491 532.131348,1697.874512 526.745483,1711.730469 
z"/>
<path fill="#B7BEC5" opacity="1.000000" stroke="none" 
	d="
M1147.496826,1429.525757 
	C1147.852417,1429.495605 1148.288208,1429.602783 1149.378662,1429.865967 
	C1143.769165,1440.410645 1137.504883,1450.799561 1130.375610,1461.480469 
	C1129.020386,1461.491455 1128.565186,1461.162109 1128.144775,1460.784546 
	C1133.653320,1451.448853 1139.161865,1442.113281 1145.625732,1432.044678 
	C1147.015259,1430.733887 1147.449219,1430.155884 1147.883179,1429.578003 
	C1147.883179,1429.578003 1147.576782,1429.663086 1147.496826,1429.525757 
z"/>
<path fill="#8E8E8E" opacity="1.000000" stroke="none" 
	d="
M490.452637,1800.116943 
	C494.496338,1790.142700 498.581665,1780.185181 502.557556,1770.183960 
	C503.707214,1767.291992 504.542358,1764.274780 506.326447,1761.626831 
	C503.650208,1771.725220 500.304626,1781.563721 496.600311,1791.265015 
	C495.574493,1793.951416 493.482422,1796.230713 491.421082,1799.421631 
	C490.962646,1800.146606 490.452606,1800.116943 490.452637,1800.116943 
z"/>
<path fill="#8E8E8E" opacity="1.000000" stroke="none" 
	d="
M674.017273,804.078308 
	C663.252075,804.128296 652.486816,804.178345 640.851562,803.512878 
	C639.970276,802.455688 639.959045,802.114014 639.947876,801.772278 
	C650.803223,801.581055 661.658569,801.389832 673.114075,802.033325 
	C673.815186,803.271423 673.916199,803.674866 674.017273,804.078308 
z"/>
<path fill="#C3C9CD" opacity="1.000000" stroke="none" 
	d="
M674.947266,804.193787 
	C673.916199,803.674866 673.815186,803.271423 673.893433,802.270447 
	C700.402710,801.650879 726.732910,801.628845 754.062561,801.758972 
	C754.908813,806.304871 751.432922,804.851257 749.293518,804.844177 
	C724.821167,804.763184 700.349243,804.513794 674.947266,804.193787 
z"/>
<path fill="#B0B0B0" opacity="1.000000" stroke="none" 
	d="
M511.317749,1872.076172 
	C512.011719,1872.593018 511.990326,1872.950195 511.969299,1873.844238 
	C499.041138,1873.003052 494.171143,1867.234985 496.035461,1855.123779 
	C496.470551,1852.297241 497.755127,1849.601440 499.135162,1846.364990 
	C500.000275,1845.912476 500.379059,1845.940552 501.326569,1845.997925 
	C501.574585,1846.944092 501.299652,1847.879761 500.926239,1848.774536 
	C495.327759,1862.192139 496.808014,1865.740479 511.317749,1872.076172 
z"/>
<path fill="#B7BEC5" opacity="1.000000" stroke="none" 
	d="
M1367.808228,988.812073 
	C1370.738525,979.347595 1377.594727,973.367859 1385.809692,968.630981 
	C1387.766357,967.502686 1389.589966,967.370850 1390.385498,970.273193 
	C1391.282471,969.918518 1392.118286,969.446045 1392.954102,968.973572 
	C1382.460571,974.648987 1372.320068,980.934692 1368.693115,993.094727 
	C1367.940796,991.235229 1367.874512,990.023682 1367.808228,988.812073 
z"/>
<path fill="#8E8E8E" opacity="1.000000" stroke="none" 
	d="
M628.065918,803.748535 
	C619.364746,803.206787 610.565796,803.258423 602.007446,801.849182 
	C598.261292,801.232361 595.006653,797.630188 591.816956,794.695679 
	C603.445312,800.599243 609.315308,801.144531 627.298706,802.033569 
	C628.064270,802.788940 628.065918,803.748535 628.065918,803.748535 
z"/>
<path fill="#B0B0B0" opacity="1.000000" stroke="none" 
	d="
M162.228149,1858.653809 
	C162.468460,1857.968506 163.058701,1857.886719 164.534790,1857.685791 
	C168.760391,1865.231201 174.988007,1869.430542 183.263092,1872.711426 
	C183.867569,1874.168091 183.886124,1874.831299 183.940262,1875.493408 
	C182.684372,1875.703491 180.965546,1876.549438 180.244736,1876.024536 
	C173.639526,1871.215454 165.420761,1868.032227 162.228149,1858.653809 
z"/>
<path fill="#9F9F9F" opacity="1.000000" stroke="none" 
	d="
M490.065430,1800.718506 
	C490.452606,1800.116943 490.962646,1800.146606 491.214844,1800.105957 
	C491.565094,1800.379883 491.802612,1800.725220 491.741180,1801.004761 
	C489.270325,1812.245361 484.999237,1822.793091 478.818237,1833.143311 
	C482.031982,1822.740479 485.855133,1812.030273 490.065430,1800.718506 
z"/>
<path fill="#9F9F9F" opacity="1.000000" stroke="none" 
	d="
M825.288391,1820.141113 
	C825.966553,1820.004028 825.966919,1820.948486 825.968384,1821.420654 
	C817.922302,1827.085083 809.874695,1832.277344 801.150940,1837.576904 
	C802.452087,1835.678101 804.171204,1833.291870 806.456909,1831.740356 
	C812.374878,1827.723389 818.542358,1824.074219 825.288391,1820.141113 
z"/>
<path fill="#B0B0B0" opacity="1.000000" stroke="none" 
	d="
M812.929688,961.662476 
	C812.029175,962.117920 811.602417,962.060669 810.530151,961.982056 
	C811.923096,953.619202 813.961487,945.277832 817.103516,936.408325 
	C818.785645,935.915100 819.364136,935.949890 819.942566,935.984619 
	C819.312195,938.130676 817.965271,940.352234 818.182068,942.408997 
	C818.912537,949.338562 816.266968,955.233582 812.929688,961.662476 
z"/>
<path fill="#C3C9CD" opacity="1.000000" stroke="none" 
	d="
M818.704712,869.307861 
	C819.291077,868.311707 819.860046,868.228333 821.287354,868.059082 
	C822.234192,885.410583 822.322693,902.848083 821.419434,921.123901 
	C819.687988,921.971680 818.948303,921.981079 818.208679,921.990479 
	C818.368225,904.733887 818.527771,887.477295 818.704712,869.307861 
z"/>
<path fill="#9F9F9F" opacity="1.000000" stroke="none" 
	d="
M549.765564,1644.561768 
	C550.242126,1644.040894 551.188232,1643.986450 551.660645,1644.022827 
	C549.227417,1651.308594 546.321838,1658.557983 542.699585,1665.932861 
	C544.418274,1659.066284 546.853638,1652.074463 549.765564,1644.561768 
z"/>
<path fill="#B7BEC5" opacity="1.000000" stroke="none" 
	d="
M1778.557373,966.309814 
	C1777.930420,966.134399 1777.930054,965.151917 1777.935181,964.660889 
	C1785.486084,962.390747 1793.031982,960.611633 1801.319824,958.697998 
	C1802.105103,958.923279 1802.148315,959.283142 1802.200195,960.186768 
	C1795.195068,965.293335 1787.066040,965.394104 1778.557373,966.309814 
z"/>
<path fill="#B7BEC5" opacity="1.000000" stroke="none" 
	d="
M620.172546,1458.698120 
	C620.518738,1458.057861 621.256958,1458.107544 621.623535,1458.057495 
	C621.401611,1460.666504 620.846863,1463.333618 620.216431,1465.982666 
	C619.321350,1469.744019 618.370605,1473.492310 616.808350,1477.646973 
	C615.706055,1478.001465 615.239014,1477.954956 614.070679,1477.848511 
	C615.521667,1471.638550 617.674011,1465.488525 620.172546,1458.698120 
z"/>
<path fill="#B7BEC5" opacity="1.000000" stroke="none" 
	d="
M1029.771362,1608.737061 
	C1032.821045,1604.459595 1035.870728,1600.182251 1039.597412,1596.004272 
	C1037.221436,1601.208252 1034.168701,1606.312866 1030.529541,1611.009155 
	C1029.885742,1609.979614 1029.828613,1609.358276 1029.771362,1608.737061 
z"/>
<path fill="#B0B0B0" opacity="1.000000" stroke="none" 
	d="
M1109.964111,1489.931152 
	C1112.605469,1485.521118 1115.246948,1481.111084 1119.117188,1476.288696 
	C1120.849731,1475.908936 1121.353394,1475.941406 1121.857056,1475.973877 
	C1119.027100,1480.402710 1116.197144,1484.831665 1112.279175,1489.630371 
	C1110.782349,1489.977173 1110.373291,1489.954224 1109.964111,1489.931152 
z"/>
<path fill="#8E8E8E" opacity="1.000000" stroke="none" 
	d="
M497.772827,936.511597 
	C502.800049,937.103638 507.827271,937.695618 513.519897,939.364990 
	C514.155945,940.888672 514.126526,941.335083 514.097107,941.781433 
	C508.583527,941.058105 503.069916,940.334717 496.878601,939.206665 
	C496.724884,938.038513 497.248840,937.275085 497.772827,936.511597 
z"/>
<path fill="#C3C9CD" opacity="1.000000" stroke="none" 
	d="
M1122.353760,1475.515625 
	C1121.353394,1475.941406 1120.849731,1475.908936 1119.588135,1475.886719 
	C1121.666748,1471.187988 1124.503174,1466.479004 1127.742188,1461.277344 
	C1128.565186,1461.162109 1129.020386,1461.491455 1129.896729,1461.942871 
	C1127.805420,1466.428223 1125.328003,1470.742920 1122.353760,1475.515625 
z"/>
<path fill="#9F9F9F" opacity="1.000000" stroke="none" 
	d="
M606.414551,946.661072 
	C605.968689,946.163574 605.840637,945.253052 605.869568,944.794189 
	C610.685852,944.879089 615.340332,945.659851 617.737488,952.131104 
	C617.832153,953.808228 617.710266,954.206665 617.588318,954.605103 
	C615.598816,949.837341 610.856567,949.035400 606.414551,946.661072 
z"/>
<path fill="#B0B0B0" opacity="1.000000" stroke="none" 
	d="
M1040.868652,1596.288574 
	C1042.363403,1592.313110 1044.539551,1588.390869 1047.729248,1584.118164 
	C1048.742798,1583.767700 1049.485229,1583.519775 1049.631348,1583.655884 
	C1049.777344,1583.791992 1050.069824,1584.063721 1050.069824,1584.063721 
	C1047.229858,1588.156250 1044.390015,1592.248901 1040.868652,1596.288574 
z"/>
<path fill="#B7BEC5" opacity="1.000000" stroke="none" 
	d="
M653.881958,1370.714233 
	C654.662170,1370.123413 655.097351,1370.163452 656.186523,1370.238892 
	C655.435242,1374.517456 654.029968,1378.760742 652.003784,1383.432007 
	C650.976135,1383.817871 650.569275,1383.775757 649.549927,1383.769653 
	C650.470581,1379.651978 652.003723,1375.498535 653.881958,1370.714233 
z"/>
<path fill="#C3C9CD" opacity="1.000000" stroke="none" 
	d="
M680.229187,1309.373779 
	C679.321655,1309.855103 678.945374,1309.814697 678.002869,1309.815186 
	C678.864075,1305.693848 680.291443,1301.531616 682.033813,1296.715698 
	C682.348755,1296.062134 683.106384,1296.078735 683.481567,1296.026123 
	C682.824707,1300.266357 681.792603,1304.559326 680.229187,1309.373779 
z"/>
<path fill="#8E8E8E" opacity="1.000000" stroke="none" 
	d="
M592.501709,793.117859 
	C590.912354,791.857605 588.985718,789.845398 588.963013,787.811951 
	C588.923157,784.250061 590.051575,780.674988 591.291992,776.703125 
	C592.269531,781.652588 592.645569,787.004517 592.501709,793.117859 
z"/>
<path fill="#8E8E8E" opacity="1.000000" stroke="none" 
	d="
M537.411987,941.101562 
	C538.029846,941.947510 538.009155,942.344055 538.016113,943.335693 
	C533.828552,943.553894 529.613342,943.177002 524.856750,941.964478 
	C524.233765,940.707153 524.152100,940.285522 524.070496,939.863770 
	C528.304810,940.126587 532.539185,940.389404 537.411987,941.101562 
z"/>
<path fill="#B7BEC5" opacity="1.000000" stroke="none" 
	d="
M497.109741,936.221130 
	C497.248840,937.275085 496.724884,938.038513 496.061462,939.245300 
	C493.703064,938.589539 491.484100,937.490417 488.682617,936.016724 
	C488.123230,935.296570 488.146362,934.951050 488.154663,934.086304 
	C490.908783,934.355042 493.677765,935.142822 497.109741,936.221130 
z"/>
<path fill="#B7BEC5" opacity="1.000000" stroke="none" 
	d="
M617.495361,955.501343 
	C617.710266,954.206665 617.832153,953.808228 617.965332,952.784912 
	C622.406738,954.475098 619.800232,958.437439 620.151978,962.391052 
	C619.236572,962.716675 617.732544,962.466980 617.635376,961.951843 
	C617.295471,960.149841 617.441162,958.256348 617.495361,955.501343 
z"/>
<path fill="#B7BEC5" opacity="1.000000" stroke="none" 
	d="
M698.005188,1872.022461 
	C701.494690,1871.401733 704.984192,1870.781006 709.245483,1870.650269 
	C710.017273,1871.140137 710.002014,1872.010132 710.002014,1872.010132 
	C708.284485,1872.074097 706.566956,1872.138184 703.814331,1872.421387 
	C702.526062,1873.004150 702.278198,1873.371216 702.035522,1873.741943 
	C701.150024,1874.000854 700.264526,1874.259766 698.711304,1873.802246 
	C698.030762,1872.731323 698.017944,1872.376831 698.005188,1872.022461 
z"/>
<path fill="#8E8E8E" opacity="1.000000" stroke="none" 
	d="
M766.152527,807.638062 
	C762.469543,806.557495 758.786560,805.476990 755.538879,803.628418 
	C758.965576,803.157715 761.956848,803.455017 765.581055,804.983032 
	C766.193481,806.688416 766.173035,807.163269 766.152527,807.638062 
z"/>
<path fill="#C3C9CD" opacity="1.000000" stroke="none" 
	d="
M697.162354,1871.989502 
	C698.017944,1872.376831 698.030762,1872.731323 698.028625,1873.617676 
	C693.935242,1874.125610 689.856812,1874.101807 684.905029,1874.039307 
	C684.031799,1874.000732 684.721191,1873.443726 684.657593,1873.005371 
	C688.502441,1872.363525 692.411011,1872.160034 697.162354,1871.989502 
z"/>
<path fill="#C3C9CD" opacity="1.000000" stroke="none" 
	d="
M766.832275,807.883789 
	C766.173035,807.163269 766.193481,806.688416 766.144958,805.504089 
	C768.955383,805.680969 771.834778,806.567322 775.349731,807.874390 
	C775.933594,808.728027 775.881836,809.160950 775.787048,810.246460 
	C772.999939,809.975952 770.255981,809.052734 766.832275,807.883789 
z"/>
<path fill="#C3C9CD" opacity="1.000000" stroke="none" 
	d="
M1029.169434,1609.247314 
	C1029.828613,1609.358276 1029.885742,1609.979614 1030.082153,1611.526245 
	C1029.341553,1613.885132 1028.461792,1615.318848 1026.982178,1616.515137 
	C1027.110718,1614.104492 1027.839111,1611.931152 1029.169434,1609.247314 
z"/>
<path fill="#B0B0B0" opacity="1.000000" stroke="none" 
	d="
M628.910400,803.842285 
	C628.065918,803.748535 628.064270,802.788940 628.050903,802.309326 
	C631.444214,801.733154 634.850891,801.636597 639.102661,801.656128 
	C639.959045,802.114014 639.970276,802.455688 639.966431,803.310059 
	C636.552490,803.860535 633.153687,803.898315 628.910400,803.842285 
z"/>
<path fill="#C3C9CD" opacity="1.000000" stroke="none" 
	d="
M820.196533,935.184937 
	C819.364136,935.949890 818.785645,935.915100 817.347595,935.743042 
	C816.847351,932.926575 817.206665,930.247437 818.329590,926.776611 
	C819.452393,926.005493 819.811462,926.026123 820.170471,926.046692 
	C820.263794,928.826233 820.357117,931.605774 820.196533,935.184937 
z"/>
<path fill="#C3C9CD" opacity="1.000000" stroke="none" 
	d="
M761.123535,1743.717041 
	C763.089905,1748.237915 758.928284,1747.552490 756.366150,1748.235229 
	C757.353516,1746.263550 758.900391,1744.967651 761.123535,1743.717041 
z"/>
<path fill="#C3C9CD" opacity="1.000000" stroke="none" 
	d="
M523.242981,939.752991 
	C524.152100,940.285522 524.233765,940.707153 524.118164,941.742065 
	C521.160645,942.369934 518.400452,942.384521 514.868652,942.090271 
	C514.126526,941.335083 514.155945,940.888672 514.140381,939.771851 
	C516.868774,939.281616 519.642090,939.461853 523.242981,939.752991 
z"/>
<path fill="#9F9F9F" opacity="1.000000" stroke="none" 
	d="
M184.630981,1875.581787 
	C183.886124,1874.831299 183.867569,1874.168091 183.910477,1873.006714 
	C185.017563,1872.698242 186.098770,1872.886719 187.610611,1873.422852 
	C188.041229,1873.770386 188.123871,1874.710327 188.103470,1875.181641 
	C187.162613,1875.658691 186.242142,1875.664429 184.630981,1875.581787 
z"/>
<path fill="#B7BEC5" opacity="1.000000" stroke="none" 
	d="
M820.370667,925.547485 
	C819.811462,926.026123 819.452393,926.005493 818.553772,925.990173 
	C817.966187,925.097900 817.918030,924.200317 818.039307,922.646606 
	C818.948303,921.981079 819.687988,921.971680 820.982361,921.966675 
	C821.215027,922.996887 820.892944,924.022644 820.370667,925.547485 
z"/>
<path fill="#B7BEC5" opacity="1.000000" stroke="none" 
	d="
M1014.995361,1632.043457 
	C1014.422668,1630.894531 1014.607910,1629.609497 1015.570862,1628.191895 
	C1016.150146,1629.342041 1015.951721,1630.624756 1014.995361,1632.043457 
z"/>
<path fill="#C3C9CD" opacity="1.000000" stroke="none" 
	d="
M755.444824,1750.091797 
	C754.230164,1750.282837 753.680237,1750.187378 752.304382,1749.954102 
	C752.444519,1748.903442 753.410522,1747.990479 754.975220,1747.409668 
	C755.905823,1748.145142 756.311584,1748.513062 756.531494,1748.970459 
	C756.613770,1749.141602 756.262878,1749.520996 755.444824,1750.091797 
z"/>
<path fill="#C3C9CD" opacity="1.000000" stroke="none" 
	d="
M765.512390,1741.380737 
	C765.155396,1742.660767 764.099182,1743.874268 762.436279,1744.416016 
	C762.824219,1742.934204 763.818726,1742.124146 765.512390,1741.380737 
z"/>
<path fill="#C3C9CD" opacity="1.000000" stroke="none" 
	d="
M1367.188721,989.337219 
	C1367.874512,990.023682 1367.940796,991.235229 1368.017334,993.354614 
	C1367.727539,994.461914 1367.427612,994.661499 1366.667236,994.578369 
	C1366.327393,992.817871 1366.448242,991.340088 1367.188721,989.337219 
z"/>
<path fill="#B7BEC5" opacity="1.000000" stroke="none" 
	d="
M1021.034546,1624.074585 
	C1020.468933,1622.909302 1020.617188,1621.652954 1021.522339,1620.196655 
	C1022.102295,1621.325684 1021.925354,1622.654541 1021.034546,1624.074585 
z"/>
<path fill="#C3C9CD" opacity="1.000000" stroke="none" 
	d="
M710.659302,1872.235352 
	C710.002014,1872.010132 710.017273,1871.140137 710.019775,1870.705200 
	C710.949402,1870.055786 711.876587,1869.841187 713.522827,1869.659912 
	C714.262268,1870.100708 714.282654,1870.508179 714.169861,1871.512695 
	C713.130066,1872.226807 712.223328,1872.343750 710.659302,1872.235352 
z"/>
<path fill="#9F9F9F" opacity="1.000000" stroke="none" 
	d="
M442.586395,1875.700439 
	C441.922516,1875.665527 441.944244,1874.699951 442.011169,1874.221313 
	C442.597229,1873.654785 443.116425,1873.566895 444.388763,1873.717285 
	C444.511353,1874.548706 443.880798,1875.142090 442.586395,1875.700439 
z"/>
<path fill="#9F9F9F" opacity="1.000000" stroke="none" 
	d="
M445.381683,1873.874390 
	C445.457336,1873.667480 446.064728,1873.251953 447.127655,1872.524292 
	C447.026611,1872.696655 446.470001,1873.181152 445.381683,1873.874390 
z"/>
<path fill="#C3C9CD" opacity="1.000000" stroke="none" 
	d="
M702.541992,1873.661377 
	C702.278198,1873.371216 702.526062,1873.004150 702.951050,1872.356567 
	C703.259766,1872.415161 703.454102,1872.749756 703.504333,1873.104736 
	C703.523376,1873.239136 703.210205,1873.420654 702.541992,1873.661377 
z"/>
<path fill="#B7BEC5" opacity="1.000000" stroke="none" 
	d="
M1016.857544,1628.567139 
	C1016.413513,1627.513062 1016.685486,1626.717041 1017.625977,1626.092285 
	C1018.054260,1627.117432 1017.813965,1627.971436 1016.857544,1628.567139 
z"/>
<path fill="#B7BEC5" opacity="1.000000" stroke="none" 
	d="
M1018.930542,1626.581787 
	C1018.445374,1625.387695 1018.630310,1624.456909 1019.532837,1623.887695 
	C1020.033875,1625.114380 1019.817322,1625.979736 1018.930542,1626.581787 
z"/>
<path fill="#B0B0B0" opacity="1.000000" stroke="none" 
	d="
M1026.305542,1618.065918 
	C1025.910522,1618.674194 1025.515381,1619.282349 1024.490234,1619.339600 
	C1023.757446,1618.376831 1023.654663,1617.964966 1023.551819,1617.552979 
	C1023.551819,1617.552979 1023.486389,1617.538452 1024.173340,1617.718994 
	C1025.342041,1617.955078 1025.823730,1618.010498 1026.305542,1618.065918 
z"/>
<path fill="#C3C9CD" opacity="1.000000" stroke="none" 
	d="
M1023.017334,1617.810303 
	C1023.654663,1617.964966 1023.757446,1618.376831 1023.938049,1619.420898 
	C1023.713074,1620.294556 1023.410217,1620.536255 1022.583130,1620.527588 
	C1022.200134,1619.540527 1022.341492,1618.804077 1023.017334,1617.810303 
z"/>
<path fill="#C3C9CD" opacity="1.000000" stroke="none" 
	d="
M1026.705078,1617.643677 
	C1025.823730,1618.010498 1025.342041,1617.955078 1024.160889,1617.683228 
	C1024.074219,1616.732422 1024.686890,1615.998169 1025.813721,1615.810059 
	C1026.586914,1616.644775 1026.845825,1616.933105 1026.705078,1617.643677 
z"/>
<path fill="#B0B0B0" opacity="1.000000" stroke="none" 
	d="
M1049.467285,1581.328735 
	C1049.862305,1581.413696 1050.268433,1581.547974 1051.300293,1581.824707 
	C1051.645508,1582.577393 1051.365112,1583.187378 1050.577393,1583.930542 
	C1050.069824,1584.063721 1049.777344,1583.791992 1049.695312,1583.141113 
	C1049.591309,1582.143921 1049.569336,1581.797729 1049.547363,1581.451538 
	C1049.547363,1581.451538 1049.478149,1581.378052 1049.467285,1581.328735 
z"/>
<path fill="#B7BEC5" opacity="1.000000" stroke="none" 
	d="
M1109.745361,1490.580200 
	C1110.373291,1489.954224 1110.782349,1489.977173 1111.802124,1490.068115 
	C1112.183594,1491.021729 1111.954346,1491.907227 1111.064819,1492.536865 
	C1110.112061,1491.930298 1109.819336,1491.579712 1109.745361,1490.580200 
z"/>
<path fill="#B7BEC5" opacity="1.000000" stroke="none" 
	d="
M1397.844727,966.591064 
	C1398.377075,966.139893 1398.274292,966.132019 1398.249756,966.090210 
	C1397.942383,966.632019 1397.496704,967.035950 1396.468506,967.447510 
	C1396.470093,967.437317 1396.891235,967.239807 1397.844727,966.591064 
z"/>
<path fill="#B7BEC5" opacity="1.000000" stroke="none" 
	d="
M1049.055054,1581.704346 
	C1049.569336,1581.797729 1049.591309,1582.143921 1049.549316,1583.005005 
	C1049.485229,1583.519775 1048.742798,1583.767700 1048.368042,1583.880371 
	C1048.183105,1583.314453 1048.372925,1582.635742 1049.055054,1581.704346 
z"/>
<path fill="#C3C9CD" opacity="1.000000" stroke="none" 
	d="
M1147.305664,1429.707520 
	C1147.449219,1430.155884 1147.015259,1430.733887 1146.127686,1431.611206 
	C1146.025635,1431.219482 1146.376953,1430.528320 1147.305664,1429.707520 
z"/>
</svg>